<svg xmlns="http://www.w3.org/2000/svg" width="175" height="35" viewBox="0 0 175 35" fill="none"><g clip-path="url(#clip0_7001_318)"><path d="M53.9058 30.5325C48.6977 30.5325 45.2808 27.1667 45.2808 22.0653V11.1118H49.1793V21.5186C49.1793 24.8108 50.9789 26.8106 53.9074 26.8106C56.836 26.8106 58.6239 24.7757 58.6239 21.5186V11.1118H62.5224V22.0653C62.5224 27.1667 59.1407 30.5325 53.9074 30.5325H53.9058Z" fill="#F8F8F8"></path><path d="M70.1039 27.9194L69.6021 30.0713H66.6536V4.31689H70.5521V12.8526C72.2079 11.4615 74.3637 10.6506 76.7989 10.6506C82.5438 10.6506 86.6582 14.8842 86.6582 20.5925C86.6582 26.3008 82.5438 30.5328 76.7989 30.5328C74.1379 30.5328 71.8098 29.558 70.1039 27.9194ZM82.6793 20.5925C82.6793 17.0194 80.0669 14.3725 76.4928 14.3725C72.9187 14.3725 70.2812 17.0444 70.2812 20.5925C70.2812 24.1406 72.9187 26.8024 76.4928 26.8024C80.0669 26.8024 82.6793 24.1556 82.6793 20.5925Z" fill="#F8F8F8"></path><path d="M122.341 30.5328C116.796 30.5328 112.597 26.254 112.597 20.5909C112.597 14.9277 116.786 10.6489 122.341 10.6489C127.895 10.6489 132.008 15.1183 132.008 20.6343C132.008 21.0607 131.972 21.4871 131.927 21.9151H116.535C117.022 24.9866 119.235 26.876 122.341 26.876C124.607 26.876 126.442 25.8277 127.443 24.0988H131.548C130.037 28.1016 126.575 30.5294 122.341 30.5294V30.5328ZM128.101 18.7516C127.402 15.8707 125.231 14.1719 122.341 14.1719C119.451 14.1719 117.273 15.9393 116.634 18.7516H128.101Z" fill="#F8F8F8"></path><path d="M135.075 20.5725C135.075 14.911 139.355 10.6523 145.025 10.6523C149.711 10.6523 153.374 13.5216 154.427 17.8722H150.564C149.567 15.6919 147.485 14.3743 145.015 14.3743C141.601 14.3743 139.044 17.0713 139.044 20.5842C139.044 24.0972 141.636 26.8142 145.015 26.8142C147.497 26.8142 149.507 25.4766 150.539 23.1692H154.472C153.43 27.6001 149.696 30.5345 145.015 30.5345C139.365 30.5345 135.075 26.2357 135.075 20.5725Z" fill="#F8F8F8"></path><path d="M170.908 19.4486C170.908 16.0159 169.439 14.1767 166.558 14.1767C163.676 14.1767 161.465 16.5627 161.465 19.9218V30.0727H157.566V4.31836H161.465V13.2688C162.92 11.6502 165.089 10.6838 167.623 10.6838C172.048 10.6838 174.806 13.7637 174.806 18.6477V30.0727H170.908V19.4486Z" fill="#F8F8F8"></path><path d="M89.9963 4.24512H94.017V8.25967H89.9963V4.24512ZM90.0599 11.1908H93.9518V30.1182H90.0599V11.1908Z" fill="#F8F8F8"></path><path d="M97.4187 11.1338H110.28V14.4678H104.674V23.0203C104.674 25.2775 105.932 26.5349 108.225 26.5349H110.385V30.0713H107.49C103.341 30.0713 100.78 27.5114 100.78 23.328V14.4678H97.4187V11.1338Z" fill="#0D58C9"></path><path d="M7.8975 10.509H2.83154C1.3447 10.509 0.135498 9.30007 0.135498 7.81363V2.74903C0.135498 1.26259 1.3447 0.0537109 2.83154 0.0537109H7.8975C9.38434 0.0537109 10.5935 1.26259 10.5935 2.74903V7.81363C10.5935 9.30007 9.38434 10.509 7.8975 10.509ZM2.83154 1.52009C2.15251 1.52009 1.6006 2.07186 1.6006 2.75071V7.8153C1.6006 8.49415 2.15251 9.04592 2.83154 9.04592H7.8975C8.57653 9.04592 9.12845 8.49415 9.12845 7.8153V2.75071C9.12845 2.07186 8.57653 1.52009 7.8975 1.52009H2.83154Z" fill="#F8F8F8"></path><path d="M7.8975 22.6397H2.83154C1.3447 22.6397 0.135498 21.4309 0.135498 19.9444V14.8765C0.135498 13.39 1.3447 12.1812 2.83154 12.1812H7.8975C9.38434 12.1812 10.5935 13.39 10.5935 14.8765V19.9444C10.5935 21.4309 9.38434 22.6397 7.8975 22.6397ZM2.83154 13.6475C2.15251 13.6475 1.6006 14.1993 1.6006 14.8781V19.9461C1.6006 20.6249 2.15251 21.1767 2.83154 21.1767H7.8975C8.57653 21.1767 9.12845 20.6249 9.12845 19.9461V14.8781C9.12845 14.1993 8.57653 13.6475 7.8975 13.6475H2.83154Z" fill="#F8F8F8"></path><path d="M7.8975 34.7233H2.83154C1.3447 34.7233 0.135498 33.5144 0.135498 32.028V26.9634C0.135498 25.4769 1.3447 24.2681 2.83154 24.2681H7.8975C9.38434 24.2681 10.5935 25.4769 10.5935 26.9634V32.028C10.5935 33.5144 9.38434 34.7233 7.8975 34.7233ZM2.83154 25.7328C2.15251 25.7328 1.6006 26.2845 1.6006 26.9634V32.028C1.6006 32.7068 2.15251 33.2586 2.83154 33.2586H7.8975C8.57653 33.2586 9.12845 32.7068 9.12845 32.028V26.9634C9.12845 26.2845 8.57653 25.7328 7.8975 25.7328H2.83154Z" fill="#F8F8F8"></path><path d="M20.0047 34.7233H14.9387C13.4519 34.7233 12.2427 33.5144 12.2427 32.028V26.9634C12.2427 25.4769 13.4519 24.2681 14.9387 24.2681H20.0047C21.4915 24.2681 22.7007 25.4769 22.7007 26.9634V32.028C22.7007 33.5144 21.4915 34.7233 20.0047 34.7233ZM14.9387 25.7328C14.2597 25.7328 13.7078 26.2845 13.7078 26.9634V32.028C13.7078 32.7068 14.2597 33.2586 14.9387 33.2586H20.0047C20.6837 33.2586 21.2356 32.7068 21.2356 32.028V26.9634C21.2356 26.2845 20.6837 25.7328 20.0047 25.7328H14.9387Z" fill="#F8F8F8"></path><path d="M20.008 22.6397H14.9387C13.4519 22.6397 12.2427 21.4309 12.2427 19.9444V14.8765C12.2427 13.39 13.4519 12.1812 14.9387 12.1812H20.008C21.4949 12.1812 22.7041 13.39 22.7041 14.8765V19.9444C22.7041 21.4309 21.4949 22.6397 20.008 22.6397ZM14.9387 13.6475C14.2597 13.6475 13.7078 14.1993 13.7078 14.8781V19.9461C13.7078 20.6249 14.2597 21.1767 14.9387 21.1767H20.008C20.6871 21.1767 21.239 20.6249 21.239 19.9461V14.8781C21.239 14.1993 20.6871 13.6475 20.008 13.6475H14.9387Z" fill="#F8F8F8"></path><path d="M32.1184 22.6397H27.0491C25.5622 22.6397 24.353 21.4309 24.353 19.9444V14.8765C24.353 13.39 25.5622 12.1812 27.0491 12.1812H32.1184C33.6052 12.1812 34.8144 13.39 34.8144 14.8765V19.9444C34.8144 21.4309 33.6052 22.6397 32.1184 22.6397ZM27.0491 13.6475C26.37 13.6475 25.8181 14.1993 25.8181 14.8781V19.9461C25.8181 20.6249 26.37 21.1767 27.0491 21.1767H32.1184C32.7974 21.1767 33.3493 20.6249 33.3493 19.9461V14.8781C33.3493 14.1993 32.7974 13.6475 32.1184 13.6475H27.0491Z" fill="#F8F8F8"></path><path d="M32.1184 10.509H27.0491C25.5622 10.509 24.353 9.30007 24.353 7.81363V2.74903C24.353 1.26259 25.5622 0.0537109 27.0491 0.0537109H32.1184C33.6052 0.0537109 34.8144 1.26259 34.8144 2.74903V7.81363C34.8144 9.30007 33.6052 10.509 32.1184 10.509ZM27.0491 1.52009C26.37 1.52009 25.8181 2.07186 25.8181 2.75071V7.8153C25.8181 8.49415 26.37 9.04592 27.0491 9.04592H32.1184C32.7974 9.04592 33.3493 8.49415 33.3493 7.8153V2.75071C33.3493 2.07186 32.7974 1.52009 32.1184 1.52009H27.0491Z" fill="#F8F8F8"></path><path d="M32.1184 34.7233H27.0491C25.5622 34.7233 24.353 33.5144 24.353 32.028V26.9634C24.353 25.4769 25.5622 24.2681 27.0491 24.2681H32.1184C33.6052 24.2681 34.8144 25.4769 34.8144 26.9634V32.028C34.8144 33.5144 33.6052 34.7233 32.1184 34.7233ZM27.0491 25.7328C26.37 25.7328 25.8181 26.2845 25.8181 26.9634V32.028C25.8181 32.7068 26.37 33.2586 27.0491 33.2586H32.1184C32.7974 33.2586 33.3493 32.7068 33.3493 32.028V26.9634C33.3493 26.2845 32.7974 25.7328 32.1184 25.7328H27.0491Z" fill="#F8F8F8"></path></g><defs><clipPath id="clip0_7001_318"><rect width="174.942" height="34.7784" fill="white"></rect></clipPath></defs></svg>